# xmcd
#
# Track frame offsets: 
#        150
#        17963
#        27973
#        42758
#        63411
#        70361
#        87676
#        102168
#        117606
#        133021
#        142741
#        153808
#        179161
#        191113
#        210411
#
# Disc length: 3085 seconds
#
# Revision: 1
# Processed by: cddbd v1.5.2PL0 Copyright (c) Steve Scherf et al.
# Submitted via: ExactAudioCopy v0.99pb5
#
DISCID=db0c0b0f
DTITLE=Breakout - Ballady
DYEAR=1990
DGENRE=Beat
TTITLE0=Zanim Odnalazlem Cie
TTITLE1=Idzie Wenus
TTITLE2=Czarno-Czarny Film
TTITLE3=Liscie Zabral Wiatr
TTITLE4=Ucisz Leki
TTITLE5=Tobie To Mowie Dzis
TTITLE6=Tobie Ta Piesn
TTITLE7=Biel
TTITLE8=Chcialbym Byc Sloncem
TTITLE9=Byles We Snie Tylko
TTITLE10=Zapytam Ptakow
TTITLE11=A Miales Przyjsc
TTITLE12=Powiedzmy To
TTITLE13=Pukam Do Drzwi Twego Snu
TTITLE14=Nie Mozna Kochac Na Rozkaz
EXTD=
EXTT0=
EXTT1=
EXTT2=
EXTT3=
EXTT4=
EXTT5=
EXTT6=
EXTT7=
EXTT8=
EXTT9=
EXTT10=
EXTT11=
EXTT12=
EXTT13=
EXTT14=
PLAYORDER=
